HIERARCHY
ROOT Hips
{
    OFFSET 0.000000 0.000000 0.000000
    CHANNELS 6 Xposition Yposition Zposition Zrotation Xrotation Yrotation
    JOINT Spine
    {
        OFFSET -0.000000 14.517291 0.000000
        CHANNELS 3 Zrotation Xrotation Yrotation
        JOINT Spine1
        {
            OFFSET -0.000000 37.558300 0.000000
            CHANNELS 3 Zrotation Xrotation Yrotation
            JOINT Neck
            {
                OFFSET -0.000000 37.404057 3.400369
                CHANNELS 3 Zrotation Xrotation Yrotation
                JOINT Head
                {
                    OFFSET -0.000000 24.785618 -3.540803
                    CHANNELS 3 Zrotation Xrotation Yrotation
                    End Site
                    {
                        OFFSET -0.000000 35.408028 0.000000
                    }
                }
            }
            JOINT LeftShoulder
            {
                OFFSET 6.992933 33.973492 -0.192664
                CHANNELS 3 Zrotation Xrotation Yrotation
                JOINT LeftArm
                {
                    OFFSET 21.527611 0.000000 0.000000
                    CHANNELS 3 Zrotation Xrotation Yrotation
                    JOINT LeftForeArm
                    {
                        OFFSET 56.353916 0.000000 0.000000
                        CHANNELS 3 Zrotation Xrotation Yrotation
                        JOINT LeftHand
                        {
                            OFFSET 47.774071 0.000000 0.000000
                            CHANNELS 3 Zrotation Xrotation Yrotation
                            End Site
                            {
                                OFFSET 26.556021 0.000000 0.000000
                            }
                        }
                    }
                }
            }
            JOINT RightShoulder
            {
                OFFSET -7.065357 33.973492 -0.192664
                CHANNELS 3 Zrotation Xrotation Yrotation
                JOINT RightArm
                {
                    OFFSET -21.527611 0.000000 0.000000
                    CHANNELS 3 Zrotation Xrotation Yrotation
                    JOINT RightForeArm
                    {
                        OFFSET -56.353916 0.000000 0.000000
                        CHANNELS 3 Zrotation Xrotation Yrotation
                        JOINT RightHand
                        {
                            OFFSET -47.774071 0.000000 0.000000
                            CHANNELS 3 Zrotation Xrotation Yrotation
                            End Site
                            {
                                OFFSET -26.556021 0.000000 0.000000
                            }
                        }
                    }
                }
            }
        }
    }
    JOINT LeftUpLeg
    {
        OFFSET 17.704014 0.000000 0.000000
        CHANNELS 3 Zrotation Xrotation Yrotation
        JOINT LeftLeg
        {
            OFFSET -0.000000 -81.181816 0.000000
            CHANNELS 3 Zrotation Xrotation Yrotation
            JOINT LeftFoot
            {
                OFFSET -0.000000 -62.821102 0.000000
                CHANNELS 3 Zrotation Xrotation Yrotation
                JOINT LeftToeBase
                {
                    OFFSET -0.000000 -11.507608 26.556021
                    CHANNELS 3 Zrotation Xrotation Yrotation
                    End Site
                    {
                        OFFSET -0.000000 0.000000 7.081605
                    }
                }
            }
        }
    }
    JOINT RightUpLeg
    {
        OFFSET -17.704014 0.000000 0.000000
        CHANNELS 3 Zrotation Xrotation Yrotation
        JOINT RightLeg
        {
            OFFSET -0.000000 -81.181816 0.000000
            CHANNELS 3 Zrotation Xrotation Yrotation
            JOINT RightFoot
            {
                OFFSET -0.000000 -62.821102 0.000000
                CHANNELS 3 Zrotation Xrotation Yrotation
                JOINT RightToeBase
                {
                    OFFSET -0.000000 -11.507608 26.556021
                    CHANNELS 3 Zrotation Xrotation Yrotation
                    End Site
                    {
                        OFFSET -0.000000 0.000000 7.081605
                    }
                }
            }
        }
    }
}
MOTION
Frames:    9
Frame Time:    0.008333
-9.622523    151.637543    -14.323351    -1.291378    0.688622    24.706642    -4.419260    0.661802    4.819219    -1.992434    3.387756    1.661263    -3.376284    -12.375175    -14.075999    15.952615    9.500554    -12.875577    14.864911    -9.552615    -20.181021    -32.557888    -1.576725    -95.155258    27.973764    -67.550346    -82.786873    -23.645535    -51.200439    -33.741791    -11.025907    -0.193845    8.830349    21.847443    -21.728556    58.526772    -8.145324    -21.689577    10.847037    11.936726    -16.743128    40.867805    1.555489    -34.861214    -27.794884    -9.936007    20.830063    -22.383245    -11.765516    4.555278    28.323671    0.000000    0.000000    0.000000    5.073486    10.502063    -14.310565    3.471648    24.180666    -1.274412    -4.156785    -30.769264    -8.013633    0.000000    0.000000    0.000000    
-9.642316    151.637024    -14.302397    -1.299725    0.698947    24.721596    -4.417026    0.654924    4.802538    -2.007513    3.367297    1.655893    -3.367585    -12.400818    -14.059150    15.968234    9.551450    -12.865739    14.913618    -9.579907    -20.174776    -32.684502    -1.616915    -95.285316    28.212355    -67.590500    -82.629555    -23.770393    -51.120708    -33.878326    -11.017680    -0.184095    8.841179    21.827765    -21.718616    58.527973    -8.161720    -21.697081    10.847587    11.921204    -16.755426    40.863331    1.555043    -34.877048    -27.781973    -9.935102    20.841524    -22.403215    -11.729628    4.574291    28.318979    0.000000    0.000000    0.000000    5.091960    10.490542    -14.322233    3.461428    24.182573    -1.280345    -4.137585    -30.764450    -8.000471    0.000000    0.000000    0.000000    
-9.658161    151.635559    -14.283106    -1.302016    0.705577    24.738379    -4.417103    0.660323    4.781733    -2.008929    3.340545    1.648422    -3.365567    -12.454571    -14.044394    15.952135    9.632497    -12.861639    14.936930    -9.622030    -20.170340    -32.816448    -1.642134    -95.385460    28.518608    -67.630447    -82.441826    -23.839361    -51.034901    -33.909676    -11.031688    -0.180280    8.857182    21.830566    -21.715702    58.532345    -8.172110    -21.687588    10.850798    11.924279    -16.744295    40.855278    1.546232    -34.891056    -27.794481    -9.939710    20.857437    -22.438707    -11.692038    4.593310    28.342508    0.000000    0.000000    0.000000    5.103281    10.479246    -14.337861    3.449982    24.198891    -1.271556    -4.119526    -30.756838    -8.007283    0.000000    0.000000    0.000000    
-9.672166    151.636154    -14.263514    -1.302521    0.709800    24.756390    -4.414796    0.665158    4.755625    -2.015940    3.317518    1.639498    -3.340100    -12.489957    -14.007960    15.921193    9.671044    -12.836217    14.971767    -9.654064    -20.164354    -32.914963    -1.670238    -95.476570    28.846230    -67.704628    -82.239410    -23.863031    -51.005116    -33.952831    -11.032426    -0.186323    8.859694    21.851194    -21.715374    58.567657    -8.162152    -21.646450    10.851494    11.907466    -16.707727    40.865295    1.532509    -34.897491    -27.798666    -9.929188    20.867046    -22.470602    -11.686334    4.609151    28.352674    0.000000    0.000000    0.000000    5.111323    10.476250    -14.373500    3.440905    24.205404    -1.270896    -4.095842    -30.744053    -7.985605    0.000000    0.000000    0.000000    
-9.683643    151.637299    -14.245066    -1.301353    0.708908    24.765308    -4.402824    0.676400    4.740180    -2.030670    3.294181    1.634217    -3.326719    -12.529348    -13.988154    15.895991    9.725488    -12.826908    15.006152    -9.678678    -20.150892    -33.005955    -1.697967    -95.574432    29.199408    -67.775803    -81.997139    -23.934160    -50.941772    -34.107208    -11.037516    -0.185912    8.873873    21.853746    -21.715635    58.575752    -8.151741    -21.638344    10.869279    11.887006    -16.705488    40.874153    1.525687    -34.898895    -27.815626    -9.927966    20.878172    -22.509857    -11.641025    4.633587    28.365297    0.000000    0.000000    0.000000    5.116968    10.472685    -14.397853    3.431508    24.221117    -1.269967    -4.062171    -30.732834    -7.959702    0.000000    0.000000    0.000000    
-9.695570    151.637207    -14.227617    -1.295752    0.708497    24.773907    -4.397886    0.680532    4.724833    -2.032059    3.284597    1.628958    -3.332473    -12.572202    -13.968836    15.874575    9.772007    -12.811650    15.014620    -9.706923    -20.137325    -33.080303    -1.724183    -95.652351    29.396576    -67.852242    -81.893227    -24.021336    -50.950241    -34.185364    -11.058198    -0.182714    8.866220    21.905529    -21.749336    58.626213    -8.109401    -21.591383    10.894366    11.850533    -16.671467    40.882942    1.514579    -34.902752    -27.838411    -9.930402    20.895176    -22.529957    -11.645528    4.630302    28.387003    0.000000    0.000000    0.000000    5.120329    10.471091    -14.423289    3.416684    24.238085    -1.286243    -4.026797    -30.727703    -7.925413    0.000000    0.000000    0.000000    
-9.705839    151.639145    -14.210478    -1.288587    0.706330    24.785355    -4.396612    0.692706    4.703203    -2.024055    3.266187    1.621016    -3.334989    -12.611567    -13.949118    15.837799    9.812994    -12.796959    15.013662    -9.728625    -20.128483    -33.146271    -1.765637    -95.699715    29.450020    -67.919586    -81.941414    -24.001064    -51.022953    -34.161007    -11.152476    -0.193292    8.910165    22.036940    -21.788721    58.619480    -8.081470    -21.548796    10.946108    11.837429    -16.630899    40.886879    1.500483    -34.904202    -27.859461    -9.930592    20.918818    -22.603233    -11.622803    4.624424    28.452293    0.000000    0.000000    0.000000    5.114941    10.470866    -14.453574    3.418155    24.256935    -1.287319    -3.992412    -30.716333    -7.898654    0.000000    0.000000    0.000000    
-9.713648    151.640366    -14.194329    -1.276410    0.703859    24.786661    -4.388451    0.701330    4.689213    -2.044565    3.258887    1.616750    -3.288672    -12.634822    -13.928288    15.771276    9.811309    -12.789953    15.034169    -9.752955    -20.103611    -33.205524    -1.796164    -95.755196    29.396503    -67.982689    -82.081322    -23.984337    -51.118008    -34.189754    -11.138997    -0.206796    8.918356    22.059320    -21.814480    58.646408    -8.034795    -21.511621    10.977550    11.814739    -16.601908    40.896469    1.488162    -34.900635    -27.878918    -9.941222    20.930754    -22.601954    -11.604714    4.633933    28.473955    0.000000    0.000000    0.000000    5.102200    10.468707    -14.479125    3.419058    24.288290    -1.312996    -3.948271    -30.719185    -7.841518    0.000000    0.000000    0.000000    
-9.723969    151.642029    -14.181068    -1.271156    0.707144    24.788630    -4.378835    0.706957    4.671988    -2.054765    3.245287    1.611048    -3.289191    -12.660351    -13.909042    15.753425    9.821298    -12.771277    15.033962    -9.778396    -20.084446    -33.241562    -1.822002    -95.793022    29.317493    -68.044991    -82.247978    -23.988817    -51.218906    -34.191330    -11.146736    -0.207918    8.923516    22.059736    -21.801399    58.666267    -8.034504    -21.496807    11.011331    11.833425    -16.576361    40.907536    1.482497    -34.908318    -27.883560    -9.952773    20.949043    -22.608509    -11.592924    4.635844    28.501976    0.000000    0.000000    0.000000    5.097646    10.458973    -14.494971    3.418070    24.310198    -1.333460    -3.920948    -30.716637    -7.812930    0.000000    0.000000    0.000000    
